<svg id="Group_152" data-name="Group 152" xmlns="http://www.w3.org/2000/svg" width="103.885" height="83.603" viewBox="0 0 103.885 83.603">
  <g id="Group_149" data-name="Group 149">
    <path id="Path_184" data-name="Path 184" d="M58.387,23.166h3.168l9.03-9.03.444-3.834A40.587,40.587,0,0,0,5,30.1a4.911,4.911,0,0,1,3.168-.19l18.06-2.978s.919-1.521,1.394-1.426a22.527,22.527,0,0,1,30.828-2.345Z" transform="translate(7.532 -0.144)" fill="#fff"/>
    <path id="Path_185" data-name="Path 185" d="M58.144,23.131A40.682,40.682,0,0,0,45.883,3.36L33.209,16.034a22.527,22.527,0,0,1,8.27,17.87v2.25a11.279,11.279,0,1,1,0,22.559H18.92l-2.25,2.281V74.522l2.25,2.25H41.478A29.339,29.339,0,0,0,58.144,23.131Z" transform="translate(32.837 6.83)" fill="#d9e6fd"/>
    <path id="Path_186" data-name="Path 186" d="M22.371,39.543H44.93V21.483H22.371a11.213,11.213,0,0,1-4.655-1.013l-3.171.981-9.093,9.03L4.66,33.65a29.181,29.181,0,0,0,17.711,5.893Z" transform="translate(6.795 43.932)" fill="#b5cffa"/>
    <path id="Path_187" data-name="Path 187" d="M30.211,8A29.339,29.339,0,0,0,12.5,60.6L25.585,47.51A11.279,11.279,0,1,1,40.508,32.587L53.593,19.5A29.308,29.308,0,0,0,30.211,8Z" transform="translate(-1.045 16.891)" fill="#8db6f9"/>
  </g>
</svg>
