<svg id="Group_162" data-name="Group 162" xmlns="http://www.w3.org/2000/svg" width="196.476" height="158.115" viewBox="0 0 196.476 158.115">
  <g id="Group_149" data-name="Group 149">
    <path id="Path_184" data-name="Path 184" d="M105.97,43.685h5.992l17.078-17.078.839-7.251A76.761,76.761,0,0,0,5,56.808a9.288,9.288,0,0,1,5.992-.36l34.156-5.633s1.738-2.876,2.637-2.7a42.605,42.605,0,0,1,58.305-4.434Z" transform="translate(18.701 -0.144)" fill="#ea4335"/>
    <path id="Path_185" data-name="Path 185" d="M95.109,40.752A76.941,76.941,0,0,0,71.919,3.36L47.95,27.329a42.605,42.605,0,0,1,15.64,33.8V65.38a21.333,21.333,0,1,1,0,42.665H20.925L16.67,112.36v25.587l4.255,4.255H63.59a55.489,55.489,0,0,0,31.52-101.45Z" transform="translate(76.961 15.912)" fill="#4285f4"/>
    <path id="Path_186" data-name="Path 186" d="M38.157,56.542H80.822V22.386H38.157a21.208,21.208,0,0,1-8.8-1.916l-6,1.856L6.158,39.4,4.66,45.4a55.189,55.189,0,0,0,33.5,11.146Z" transform="translate(17.004 101.332)" fill="#34a853"/>
    <path id="Path_187" data-name="Path 187" d="M56.205,8a55.489,55.489,0,0,0-33.5,99.472L47.457,82.724A21.333,21.333,0,1,1,75.68,54.5l24.748-24.748A55.429,55.429,0,0,0,56.205,8Z" transform="translate(-1.045 39.076)" fill="#fbbc05"/>
  </g>
</svg>
